<svg xmlns="http://www.w3.org/2000/svg" xmlns:xlink="http://www.w3.org/1999/xlink" width="77" height="20" role="img" aria-label="Poison"><title>Poison</title><style>a:hover #llink{fill:url(#b);stroke:#ccc}a:hover #rlink{fill:#4183c4}</style><linearGradient id="a" x2="0" y2="100%"><stop offset="0" stop-color="#fcfcfc" stop-opacity="0"/><stop offset="1" stop-opacity=".1"/></linearGradient><linearGradient id="b" x2="0" y2="100%"><stop offset="0" stop-color="#ccc" stop-opacity=".1"/><stop offset="1" stop-opacity=".1"/></linearGradient><g stroke="#d5d5d5"><rect stroke="none" fill="#fcfcfc" x="0.5" y="0.5" width="25" height="19" rx="2"/><rect x="31.5" y="0.5" width="45" height="19" rx="2" fill="#fafafa"/><rect x="31" y="7.5" width="0.5" height="5" stroke="#fafafa"/><path d="M31.5 6.5 l-3 3v1 l3 3" stroke="d5d5d5" fill="#fafafa"/></g>

<svg
   width="17"
   height="17"
   viewBox="-2 -1 13.229166 13.229167">
	<g transform="matrix(0.067795,0,0,0.067795,-0.36292193,-3.3320779)"><path style="fill:#000000;stroke-width:0.264583"
       d="m 104.33937,60.472683 c -6.674356,-0.07634 -7.382059,2.522081 -8.774144,4.813659 L 82.351562,95.804376 c -2.093123,6.968844 0.422457,8.407334 2.359546,10.539924 l 24.304462,21.15788 c 5.2076,4.01013 8.57878,2.87928 11.71918,1.10123 l 27.84378,-16.83205 c 2.19991,-1.74312 4.67874,-2.94997 4.24728,-9.75341 l -7.7866,-32.799031 c -0.50062,-3.866851 -2.70754,-6.324007 -8.02277,-6.213574 l -32.01251,-2.517159 c -0.22795,-0.0081 -0.44926,-0.01304 -0.66456,-0.0155 z m 3.96823,16.218648 22.33766,2.044836 5.0338,21.787303 -19.27014,11.95586 -16.989665,-14.865762 z" /><path
       style="fill:#000000;stroke-width:0.264583"
       d="m 86.756091,202.41777 c -3.273617,2.07973 -3.949765,5.53034 -3.460806,9.59587 l 2.556277,11.16896 c 1.654401,5.15528 3.99528,4.40685 6.135063,5.38784 l 11.640885,1.17982 c 3.08099,-0.006 6.21187,0.19337 8.37673,-3.57878 l 5.50582,-12.30946 c 0.61509,-2.51695 0.64169,-5.0339 -1.14049,-7.55085 l -10.42174,-9.47788 c -2.67985,-1.2877 -5.47596,-1.81964 -8.573359,-0.39327 z"
       id="path343" /><path
       id="path345"
       style="fill:#000000;stroke-width:0.264583"
       d="m 125.45849,158.86369 c -1.08941,-0.004 -2.32015,0.28326 -3.77961,1.04128 l -13.92215,7.07864 c -4.16428,2.29453 -3.25399,5.09683 -3.46077,7.78712 l 2.16317,14.35416 c 0.59982,4.93996 3.40905,6.47384 6.48901,7.59023 l 13.52838,2.08463 c 3.21196,-0.0688 6.35971,0.74113 9.87123,-3.42149 l 7.19698,-14.31541 c 0.90201,-2.75116 1.90065,-5.49206 -1.17978,-8.65167 l -11.60136,-11.60187 c -1.66016,-0.87129 -3.2253,-1.93828 -5.3051,-1.94562 z m -1.49861,17.99115 2.47736,2.281 -1.6123,3.22512 -3.22461,-0.55087 -0.59015,-3.30316 z" /><path
       id="path356"
       style="fill:#000000;stroke-width:0.264583"
       d="m 94.484155,124.44563 c -0.572274,-0.002 -1.196851,0.0588 -1.881539,0.19276 l -21.078816,1.3348 c -5.465123,0.78843 -6.54139,3.84209 -7.508586,6.95203 l -4.504635,18.2423 c -1.058561,6.24558 0.800948,9.24914 3.726388,11.06806 l 18.186487,11.06754 c 3.466696,0.97715 6.904157,1.7396 9.789066,-1.5012 l 16.23984,-13.62656 c 1.6763,-2.59436 3.2638,-5.25032 1.16788,-10.45621 l -8.11991,-19.29908 c -1.354297,-2.11311 -2.925894,-3.96278 -6.016175,-3.97444 z m -6.219775,16.04347 3.671094,9.34361 -7.675501,6.396 -7.897709,-5.2834 2.336292,-9.51053 z" /></g></svg>

<g aria-hidden="true" fill="#333" text-anchor="middle" font-family="Helvetica Neue,Helvetica,Arial,sans-serif" text-rendering="geometricPrecision" font-weight="700" font-size="110px" line-height="14px"><rect id="llink" stroke="#d5d5d5" fill="url(#a)" x=".5" y=".5" width="25" height="19" rx="2"/><text aria-hidden="true" x="195" y="150" fill="#fff" transform="scale(.1)" textLength="10"></text><text x="195" y="140" transform="scale(.1)" textLength="10"></text><text aria-hidden="true" x="535" y="150" fill="#fff" transform="scale(.1)" textLength="370">Poison</text><text id="rlink" x="535" y="140" transform="scale(.1)" textLength="370">Poison</text></g></svg>